# xmcd
#
# Track frame offsets: 
#        150
#        20218
#        40848
#        58543
#        80597
#        99544
#        119047
#        138382
#        156737
#        177245
#        198171
#
# Disc length: 2918 seconds
#
# Revision: 0
# Processed by: cddbd v1.5.2PL0 Copyright (c) Steve Scherf et al.
# Submitted via: ExactAudioCopy v1.0b4
#
DISCID=9e0b640b
DTITLE=Charlie And The Fez Kings - It's Good To Be The King
DYEAR=2012
DGENRE=Blues, Jazzy Blues
TTITLE0=Another Time, Another Day
TTITLE1=Mr. Wrong
TTITLE2=It's Good To Be The King
TTITLE3=Hiawatha Lounge
TTITLE4=Ricky And Rosa
TTITLE5=I'm Going Home
TTITLE6=Overdrive
TTITLE7=Shelter
TTITLE8=Sugar Daddy
TTITLE9=What You Gonna Do
TTITLE10=Desert Nights
EXTD=
EXTT0=
EXTT1=
EXTT2=
EXTT3=
EXTT4=
EXTT5=
EXTT6=
EXTT7=
EXTT8=
EXTT9=
EXTT10=
PLAYORDER=
